<svg xmlns="http://www.w3.org/2000/svg" width="192" height="192" viewBox="0 0 192 192">
  <defs>
    <linearGradient id="goldGradient" x1="0%" y1="0%" x2="100%" y2="100%">
      <stop offset="0%" style="stop-color:#D4AF37;stop-opacity:1" />
      <stop offset="50%" style="stop-color:#C9A227;stop-opacity:1" />
      <stop offset="100%" style="stop-color:#B8941F;stop-opacity:1" />
    </linearGradient>
    <linearGradient id="bgGradient" x1="0%" y1="0%" x2="100%" y2="100%">
      <stop offset="0%" style="stop-color:#1A1A1A;stop-opacity:1" />
      <stop offset="100%" style="stop-color:#111317;stop-opacity:1" />
    </linearGradient>
  </defs>
  <circle cx="96" cy="96" r="90" fill="url(#bgGradient)" stroke="url(#goldGradient)" stroke-width="4"/>
  <path d="M120 54c-6-6-15-9-24-9-18 0-33 12-33 27 0 12 9 18 21 24l18 9c9 3 15 9 15 18 0 12-12 21-27 21-12 0-21-6-27-15" 
        fill="none" stroke="url(#goldGradient)" stroke-width="12" stroke-linecap="round" stroke-linejoin="round"/>
  <circle cx="120" cy="54" r="6" fill="#D4AF37"/>
  <circle cx="66" cy="144" r="4.5" fill="#D4AF37" opacity="0.7"/>
  <circle cx="57" cy="156" r="3" fill="#D4AF37" opacity="0.5"/>
</svg>
