<svg xmlns="http://www.w3.org/2000/svg" viewBox="0 0 64 64">
  <defs>
    <linearGradient id="goldGradient" x1="0%" y1="0%" x2="100%" y2="100%">
      <stop offset="0%" style="stop-color:#D4AF37;stop-opacity:1" />
      <stop offset="50%" style="stop-color:#C9A227;stop-opacity:1" />
      <stop offset="100%" style="stop-color:#B8941F;stop-opacity:1" />
    </linearGradient>
    <linearGradient id="bgGradient" x1="0%" y1="0%" x2="100%" y2="100%">
      <stop offset="0%" style="stop-color:#1A1A1A;stop-opacity:1" />
      <stop offset="100%" style="stop-color:#111317;stop-opacity:1" />
    </linearGradient>
  </defs>
  <circle cx="32" cy="32" r="30" fill="url(#bgGradient)" stroke="url(#goldGradient)" stroke-width="2"/>
  <path d="M40 18c-2-2-5-3-8-3-6 0-11 4-11 9 0 4 3 6 7 8l6 3c3 1 5 3 5 6 0 4-4 7-9 7-4 0-7-2-9-5" 
        fill="none" stroke="url(#goldGradient)" stroke-width="4" stroke-linecap="round" stroke-linejoin="round"/>
  <circle cx="40" cy="18" r="2" fill="#D4AF37"/>
  <circle cx="22" cy="48" r="1.5" fill="#D4AF37" opacity="0.7"/>
  <circle cx="19" cy="52" r="1" fill="#D4AF37" opacity="0.5"/>
</svg>
